<svg width="27" height="27" viewBox="0 0 27 27" fill="none" xmlns="http://www.w3.org/2000/svg">
<circle cx="13.5" cy="13.5002" r="12.5" fill="white" stroke="#CACDD8" stroke-width="2"/>
<path d="M8.16298 19.904H8.2377L11.6994 19.5885C12.0786 19.5508 12.4333 19.3837 12.7039 19.1153L20.1752 11.644C20.4652 11.3377 20.6219 10.9288 20.611 10.5071C20.6001 10.0855 20.4225 9.68528 20.1171 9.3943L17.8425 7.1197C17.5456 6.84085 17.1566 6.68085 16.7495 6.67013C16.3423 6.65942 15.9454 6.79874 15.6343 7.06159L8.16298 14.5329C7.89465 14.8035 7.72757 15.1582 7.6898 15.5374L7.33283 18.9991C7.32165 19.1207 7.33743 19.2433 7.37904 19.3581C7.42065 19.4729 7.48708 19.5771 7.57358 19.6632C7.65115 19.7402 7.74314 19.8011 7.84428 19.8424C7.94543 19.8837 8.05373 19.9046 8.16298 19.904ZM16.6886 8.2819L18.9549 10.5482L17.2946 12.167L15.0698 9.9422L16.6886 8.2819ZM9.30029 15.6785L13.974 11.038L16.2154 13.2794L11.5666 17.9282L9.07615 18.1607L9.30029 15.6785Z" fill="#A2A6B0"/>
</svg>
